<?xml version="1.0" encoding="UTF-8"?>
<svg width="15px" height="13px" viewBox="0 0 15 13" version="1.1" xmlns="http://www.w3.org/2000/svg" xmlns:xlink="http://www.w3.org/1999/xlink">
    <!-- Generator: Sketch 55.1 (78136) - https://sketchapp.com -->
    <title>icon-warning</title>
    <desc>Created with Sketch.</desc>
    <g id="Page-1" stroke="none" stroke-width="1" fill="none" fill-rule="evenodd">
        <g id="01.-Scenario-1---MACTS---Email" transform="translate(-992.000000, -94.000000)" fill="#EA202D" fill-rule="nonzero">
            <g id="Email-Tab---active" transform="translate(847.000100, 51.000000)">
                <g id="Status-indicator" transform="translate(131.999900, 26.000000)">
                    <g id="warning-outline" transform="translate(13.000000, 17.000000)">
                        <path d="M7.22222222,1.8135 C6.81705556,1.8135 6.41405556,2.06916667 6.10711111,2.5805 L1.83733333,9.69727778 C1.22272222,10.7185 1.69722222,11.5555556 2.88888889,11.5555556 L11.5555556,11.5555556 C12.7472222,11.5555556 13.2217222,10.7192222 12.6071111,9.69727778 L8.33733333,2.5805 C8.03038889,2.06916667 7.62738889,1.8135 7.22222222,1.8135 Z M7.22222222,0.369055556 C8.15822222,0.369055556 9.01477778,0.9035 9.57594444,1.83805556 L13.8457222,8.95483333 C14.4133889,9.90022222 14.4747778,10.9084444 14.0154444,11.7209444 C13.5561111,12.5334444 12.6583889,13 11.5555556,13 L2.88888889,13 C1.78605556,13 0.889055556,12.5327222 0.429,11.7202222 C-0.0310555556,10.9077222 0.0310555556,9.8995 0.598722222,8.95411111 L4.8685,1.83588889 C5.42966667,0.9035 6.28622222,0.369055556 7.22222222,0.369055556 Z M8.16111111,9.38888889 C8.16111111,9.90744444 7.74077778,10.3277778 7.22222222,10.3277778 C6.70366667,10.3277778 6.28333333,9.90744444 6.28333333,9.38888889 C6.28333333,8.87033333 6.70366667,8.45 7.22222222,8.45 C7.74077778,8.45 8.16111111,8.87033333 8.16111111,9.38888889 Z M8.30555556,5.05555556 C8.30555556,5.19927778 8.27594444,5.3365 8.22683333,5.46144444 C7.82527778,6.45522222 7.22222222,7.94444444 7.22222222,7.94444444 C7.22222222,7.94444444 6.61916667,6.45522222 6.21905556,5.46144444 C6.1685,5.3365 6.13888889,5.19927778 6.13888889,5.05555556 C6.13888889,4.45611111 6.6235,3.97222222 7.22222222,3.97222222 C7.82094444,3.97222222 8.30555556,4.45611111 8.30555556,5.05555556 Z" id="icon-warning"></path>
                    </g>
                </g>
            </g>
        </g>
    </g>
</svg>