<?xml version="1.0" encoding="UTF-8"?>
<svg width="24px" height="21px" viewBox="0 0 24 21" version="1.1" xmlns="http://www.w3.org/2000/svg" xmlns:xlink="http://www.w3.org/1999/xlink">
    <!-- Generator: Sketch 55.1 (78136) - https://sketchapp.com -->
    <title>icon-chat</title>
    <desc>Created with Sketch.</desc>
    <g id="Page-1" stroke="none" stroke-width="1" fill="none" fill-rule="evenodd">
        <g id="MACTS-1024x768---Element-Library" transform="translate(-968.000000, -733.000000)" fill="#333333" fill-rule="nonzero">
            <g id="Footer" transform="translate(0.000000, 717.000000)">
                <g id="Chat" transform="translate(936.000000, 0.000000)">
                    <g id="bubbles2" transform="translate(32.000000, 16.000000)">
                        <path d="M9.84375,0 L9.84375,0 C15.280125,0 19.6875,3.56671875 19.6875,7.96621875 C19.6875,12.3657187 15.280125,15.9324375 9.84375,15.9324375 C9.321375,15.9324375 8.8095,15.8989687 8.30878125,15.8359688 C6.19434375,17.941875 3.7524375,18.319875 1.3125,18.375 L1.3125,17.8598437 C2.63025,17.2167187 3.69140625,16.0453125 3.69140625,14.7072188 C3.69140625,14.5201875 3.67696875,14.3370937 3.6500625,14.1579375 C1.4240625,12.6977813 0,10.4665313 0,7.966875 C0,3.567375 4.407375,0.00065625 9.84375,0.00065625 L9.84375,0 Z M20.4257812,17.8559062 C20.4257812,19.0030312 21.170625,20.0070937 22.3125,20.5583437 L22.3125,21 C20.1974063,20.95275 18.2562188,20.6285625 16.4239688,18.823875 C15.9901875,18.8783437 15.5465625,18.9065625 15.09375,18.9065625 C13.1361563,18.9065625 11.332125,18.3782813 9.89296875,17.4910312 C12.859875,17.4805313 15.66075,16.5302813 17.7850313,14.8109063 C18.855375,13.9446562 19.700625,12.9274687 20.2951875,11.788875 C20.9258437,10.581375 21.2460938,9.29578125 21.2460938,7.96621875 C21.2460938,7.75228125 21.2369063,7.539 21.2205,7.32703125 C22.708875,8.5561875 23.625,10.2315937 23.625,12.0782812 C23.625,14.2209375 22.39125,16.13325 20.461875,17.3847187 C20.43825,17.5382813 20.4257812,17.6957812 20.4257812,17.8559062 Z" id="icon-chat"></path>
                    </g>
                </g>
            </g>
        </g>
    </g>
</svg>