<?xml version="1.0" encoding="UTF-8"?>
<svg width="23px" height="24px" viewBox="0 0 23 24" version="1.1" xmlns="http://www.w3.org/2000/svg" xmlns:xlink="http://www.w3.org/1999/xlink">
    <!-- Generator: Sketch 55.1 (78136) - https://sketchapp.com -->
    <title>icon-calendar</title>
    <desc>Created with Sketch.</desc>
    <g id="Page-1" stroke="none" stroke-width="1" fill="none" fill-rule="evenodd">
        <g id="MACTS-1024x768---Element-Library" transform="translate(-791.000000, -731.000000)" fill="#333333" fill-rule="nonzero">
            <g id="Footer" transform="translate(0.000000, 717.000000)">
                <g id="Calendar" transform="translate(758.000000, 0.000000)">
                    <g id="calendar" transform="translate(33.000000, 14.000000)">
                        <path d="M7.5,9 L10.5,9 L10.5,12 L7.5,12 L7.5,9 Z M12,9 L15,9 L15,12 L12,12 L12,9 Z M16.5,9 L19.5,9 L19.5,12 L16.5,12 L16.5,9 Z M3,18 L6,18 L6,21 L3,21 L3,18 Z M7.5,18 L10.5,18 L10.5,21 L7.5,21 L7.5,18 Z M12,18 L15,18 L15,21 L12,21 L12,18 Z M7.5,13.5 L10.5,13.5 L10.5,16.5 L7.5,16.5 L7.5,13.5 Z M12,13.5 L15,13.5 L15,16.5 L12,16.5 L12,13.5 Z M16.5,13.5 L19.5,13.5 L19.5,16.5 L16.5,16.5 L16.5,13.5 Z M3,13.5 L6,13.5 L6,16.5 L3,16.5 L3,13.5 Z M19.5,0 L19.5,1.5 L16.5,1.5 L16.5,0 L6,0 L6,1.5 L3,1.5 L3,0 L0,0 L0,24 L22.5,24 L22.5,0 L19.5,0 Z M21,22.5 L1.5,22.5 L1.5,6 L21,6 L21,22.5 Z" id="icon-calendar"></path>
                    </g>
                </g>
            </g>
        </g>
    </g>
</svg>