<?xml version="1.0" encoding="UTF-8"?>
<svg width="21px" height="21px" viewBox="0 0 21 21" version="1.1" xmlns="http://www.w3.org/2000/svg" xmlns:xlink="http://www.w3.org/1999/xlink">
    <!-- Generator: Sketch 55.1 (78136) - https://sketchapp.com -->
    <title>icon-notifications</title>
    <desc>Created with Sketch.</desc>
    <g id="Page-1" stroke="none" stroke-width="1" fill="none" fill-rule="evenodd">
        <g id="MACTS-1024x768---Element-Library" transform="translate(-123.000000, -734.000000)" fill="#333333" fill-rule="nonzero">
            <g id="Footer" transform="translate(0.000000, 717.000000)">
                <g id="Notification" transform="translate(89.000000, 0.000000)">
                    <g id="bell" transform="translate(34.000000, 17.000000)">
                        <path d="M20.3935455,15.9097273 C20.3935455,10.1824545 15.3026364,11.4551818 15.3026364,7.00063636 C15.3026364,6.63154545 15.267,6.31590909 15.2020909,6.04736364 C14.8673636,3.79972727 13.3693636,1.99627273 11.4284545,1.44645455 C11.4456364,1.36818182 11.4545455,1.28672727 11.4545455,1.20336364 C11.4545455,0.541545455 10.8818182,0 10.1818182,0 C9.48181818,0 8.90909091,0.541545455 8.90909091,1.20336364 C8.90909091,1.28672727 8.918,1.36754545 8.93518182,1.44645455 C6.75818182,2.06309091 5.13863636,4.25663636 5.09218182,6.88418182 C5.09154545,6.92236364 5.09090909,6.96118182 5.09090909,7.00063636 C5.09090909,11.4551818 0,10.1824545 0,15.9097273 C0,17.4255455 3.39245455,18.6938182 7.93418182,19.0139091 C8.36245455,19.8176364 9.20818182,20.3642727 10.1818182,20.3642727 C11.1554545,20.3642727 12.0018182,19.817 12.4294545,19.0139091 C16.9711818,18.6938182 20.3636364,17.4261818 20.3636364,15.9097273 C20.3636364,15.9052727 20.363,15.9008182 20.363,15.8963636 L20.3935455,15.9097273 Z M16.4309091,16.9858182 C15.3522727,17.2734545 14.0814545,17.4802727 12.7164545,17.5954545 C12.6031818,16.2947273 11.5118182,15.274 10.1811818,15.274 C8.85054545,15.274 7.75981818,16.2947273 7.64590909,17.5954545 C6.28154545,17.4809091 5.01009091,17.2734545 3.93145455,16.9858182 C2.44745455,16.59 1.73790909,16.1470909 1.47827273,15.9097273 C1.73790909,15.673 2.44745455,15.2300909 3.93145455,14.8336364 C5.65727273,14.3729091 7.87627273,14.1196364 10.1805455,14.1196364 C12.4848182,14.1196364 14.7044545,14.3729091 16.4296364,14.8336364 C17.9136364,15.2294545 18.6231818,15.6723636 18.8828182,15.9097273 C18.6231818,16.1464545 17.9136364,16.5893636 16.4296364,16.9858182 L16.4309091,16.9858182 Z" id="icon-notifications"></path>
                    </g>
                </g>
            </g>
        </g>
    </g>
</svg>