<?xml version="1.0" encoding="UTF-8"?>
<svg width="13px" height="13px" viewBox="0 0 13 13" version="1.1" xmlns="http://www.w3.org/2000/svg" xmlns:xlink="http://www.w3.org/1999/xlink">
    <!-- Generator: Sketch 55.1 (78136) - https://sketchapp.com -->
    <title>icon-clock</title>
    <desc>Created with Sketch.</desc>
    <g id="Page-1" stroke="none" stroke-width="1" fill="none" fill-rule="evenodd">
        <g id="MACTS-1024x768---Element-Library" transform="translate(-577.000000, -18.000000)" fill="#9E9FA1">
            <g id="Header">
                <g id="Time" transform="translate(577.000000, 16.000000)">
                    <path d="M6.5,13.375 C3.80778125,13.375 1.625,11.1922188 1.625,8.5 C1.625,5.80778125 3.80778125,3.625 6.5,3.625 C9.19221875,3.625 11.375,5.80778125 11.375,8.5 C11.375,11.1922188 9.19221875,13.375 6.5,13.375 L6.5,13.375 Z M6.5,2 C2.90996875,2 0,4.90996875 0,8.5 C0,12.0900312 2.90996875,15 6.5,15 C10.0900312,15 13,12.0900312 13,8.5 C13,4.90996875 10.0900312,2 6.5,2 L6.5,2 Z M8.3630625,11.5119375 L5.6875,8.836375 L5.6875,5.25 L7.3125,5.25 L7.3125,8.163625 L9.5119375,10.3630625 L8.3630625,11.5119375 Z" id="icon-clock"></path>
                </g>
            </g>
        </g>
    </g>
</svg>