<?xml version="1.0" encoding="UTF-8"?>
<svg width="14px" height="8px" viewBox="0 0 14 8" version="1.1" xmlns="http://www.w3.org/2000/svg" xmlns:xlink="http://www.w3.org/1999/xlink">
    <!-- Generator: Sketch 55.1 (78136) - https://sketchapp.com -->
    <title>icon-chevron</title>
    <desc>Created with Sketch.</desc>
    <g id="Page-1" stroke="none" stroke-width="1" fill="none" fill-rule="evenodd">
        <g id="MACTS-1024x768---Element-Library" transform="translate(-950.000000, -22.000000)" fill="#9E9FA1">
            <g id="Header">
                <g id="User" transform="translate(838.000000, 15.000000)">
                    <g id="arrow-down" transform="translate(119.000000, 8.000000) rotate(-45.000000) translate(-119.000000, -8.000000) translate(114.000000, 3.000000)">
                        <path d="M2,8 L9,8 C9.55228475,8 10,8.44771525 10,9 C10,9.55228475 9.55228475,10 9,10 L1,10 C0.723857625,10 0.473857625,9.88807119 0.292893219,9.70710678 C0.111928813,9.52614237 1.11022302e-16,9.27614237 0,9 L-4.4408921e-16,1 C-4.4408921e-16,0.44771525 0.44771525,1.01453063e-16 1,0 C1.55228475,-1.01453063e-16 2,0.44771525 2,1 L2,8 Z" id="icon-chevron"></path>
                    </g>
                </g>
            </g>
        </g>
    </g>
</svg>