<?xml version="1.0" encoding="UTF-8"?>
<svg width="13px" height="13px" viewBox="0 0 13 13" version="1.1" xmlns="http://www.w3.org/2000/svg" xmlns:xlink="http://www.w3.org/1999/xlink">
    <!-- Generator: Sketch 55.1 (78136) - https://sketchapp.com -->
    <title>icon-link</title>
    <desc>Created with Sketch.</desc>
    <g id="Page-1" stroke="none" stroke-width="1" fill="none" fill-rule="evenodd">
        <g id="02.-Scenario-1---MACTS---New-parties-found" transform="translate(-266.000000, -259.000000)" fill="#333333" fill-rule="nonzero">
            <g id="Party-1" transform="translate(63.000000, 215.000000)">
                <g id="ver.2" transform="translate(0.000000, 28.000000)">
                    <g id="link" transform="translate(203.000000, 16.000000)">
                        <path d="M5.58878125,8.071375 C5.41978125,8.071375 5.25078125,8.00678125 5.122,7.878 C3.91421875,6.67021875 3.91421875,4.7051875 5.122,3.49740625 L7.5595,1.05990625 C8.1445,0.47490625 8.92246875,0.15275 9.75,0.15275 C10.5775312,0.15275 11.3550937,0.47490625 11.9405,1.05990625 C13.1482812,2.2676875 13.1482812,4.23271875 11.9405,5.4405 L10.8261562,6.55484375 C10.5681875,6.8128125 10.1505625,6.8128125 9.89259375,6.55484375 C9.634625,6.296875 9.634625,5.87925 9.89259375,5.62128125 L11.0069375,4.5069375 C11.7,3.813875 11.7,2.68653125 11.0069375,1.99346875 C10.671375,1.65790625 10.2249062,1.4730625 9.75,1.4730625 C9.27509375,1.4730625 8.82903125,1.65790625 8.4930625,1.99346875 L6.0555625,4.43096875 C5.3625,5.12403125 5.3625,6.251375 6.0555625,6.9444375 C6.31353125,7.20240625 6.31353125,7.62003125 6.0555625,7.878 C5.92678125,8.00678125 5.75778125,8.071375 5.58878125,8.071375 Z M3.25,12.8476562 C2.42246875,12.8476562 1.6445,12.5255 1.0595,11.9405 C-0.14828125,10.7327187 -0.14828125,8.7676875 1.0595,7.55990625 L2.17384375,6.4455625 C2.4318125,6.18759375 2.84984375,6.18759375 3.10740625,6.4455625 C3.36496875,6.70353125 3.365375,7.12115625 3.10740625,7.379125 L1.9930625,8.49346875 C1.3,9.18653125 1.3,10.313875 1.9930625,11.0069375 C2.328625,11.3425 2.77509375,11.5273437 3.25,11.5273437 C3.72490625,11.5273437 4.17096875,11.3425 4.5069375,11.0069375 L6.9444375,8.5694375 C7.6375,7.876375 7.6375,6.74903125 6.9444375,6.05596875 C6.68646875,5.798 6.68646875,5.380375 6.9444375,5.12240625 C7.20240625,4.8644375 7.62003125,4.8644375 7.878,5.12240625 C9.08578125,6.3301875 9.08578125,8.29521875 7.878,9.503 L5.4405,11.9405 C4.8555,12.5255 4.07753125,12.8476562 3.25,12.8476562 Z" id="icon-link"></path>
                    </g>
                </g>
            </g>
        </g>
    </g>
</svg>