<?xml version="1.0" encoding="UTF-8"?>
<svg width="21px" height="21px" viewBox="0 0 21 21" version="1.1" xmlns="http://www.w3.org/2000/svg" xmlns:xlink="http://www.w3.org/1999/xlink">
    <!-- Generator: Sketch 55.1 (78136) - https://sketchapp.com -->
    <title>icon-help</title>
    <desc>Created with Sketch.</desc>
    <g id="Page-1" stroke="none" stroke-width="1" fill="none" fill-rule="evenodd">
        <g id="MACTS-1024x768---Element-Library" transform="translate(-211.000000, -732.000000)" fill="#333333" fill-rule="nonzero">
            <g id="Footer" transform="translate(0.000000, 717.000000)">
                <path d="M221.5,15 C215.700938,15 211,19.7009375 211,25.5 C211,31.2990625 215.700938,36 221.5,36 C227.297969,36 232,31.2990625 232,25.4989062 C232,19.7009375 227.297969,15 221.5,15 Z M221.334844,31.6239063 L221.279063,31.6239063 C220.42375,31.59875 219.82,30.9676562 219.845156,30.124375 C219.869219,29.2953125 220.487188,28.6926562 221.314063,28.6926562 L221.364375,28.6948438 C222.24375,28.72 222.840937,29.3445313 222.815781,30.211875 C222.790625,31.043125 222.183594,31.6239063 221.334844,31.6239063 L221.334844,31.6239063 Z M224.934375,24.480625 C224.733125,24.765 224.29125,25.1215625 223.733438,25.5557813 L223.11875,25.9790625 C222.781875,26.2415625 222.578438,26.4898438 222.502969,26.7315625 C222.441719,26.921875 222.413281,26.9732813 222.407813,27.3615625 L222.407813,27.46 L220.061719,27.46 L220.068281,27.2609375 C220.097813,26.4471875 220.1175,25.9659375 220.455469,25.5689063 C220.985938,24.9476563 222.15625,24.1929687 222.205469,24.16125 C222.373906,24.0354687 222.515,23.8921875 222.62,23.7379688 C222.866094,23.3978125 222.974375,23.1309375 222.974375,22.870625 C222.974375,22.5053125 222.867188,22.1673438 222.653906,21.86875 C222.448281,21.5778125 222.057813,21.4334375 221.493437,21.4334375 C220.933437,21.4334375 220.549531,21.610625 220.320938,21.9759375 C220.084688,22.3489062 219.965469,22.7415625 219.965469,23.1429687 L219.965469,23.2435937 L217.547188,23.2435937 L217.551562,23.1385937 C217.613906,21.65875 218.143281,20.5923437 219.121094,19.97 C219.736875,19.5751562 220.503594,19.375 221.397188,19.375 C222.565313,19.375 223.554062,19.659375 224.330625,20.219375 C225.119219,20.7870312 225.518438,21.6379687 225.518438,22.7470312 C225.517344,23.3671875 225.321562,23.9501562 224.934375,24.480625 L224.934375,24.480625 Z" id="icon-help"></path>
            </g>
        </g>
    </g>
</svg>